<mxfile host="Electron" modified="2023-08-31T05:11:02.830Z" agent="Mozilla/5.0 (X11; Linux x86_64) AppleWebKit/537.36 (KHTML, like Gecko) draw.io/21.3.7 Chrome/112.0.5615.204 Electron/24.5.0 Safari/537.36" etag="1psIoaPDAEnIdVkIMAZN" version="21.3.7" type="device">
  <diagram name="Page-1" id="5f0bae14-7c28-e335-631c-24af17079c00">
    <mxGraphModel dx="1077" dy="648" grid="1" gridSize="10" guides="1" tooltips="1" connect="1" arrows="1" fold="1" page="1" pageScale="1" pageWidth="1100" pageHeight="850" background="none" math="0" shadow="0">
      <root>
        <mxCell id="0" />
        <mxCell id="1" parent="0" />
        <mxCell id="6w-v6orT0S4Obo7nglp9-16" value="2. update payload" style="rounded=0;orthogonalLoop=1;jettySize=auto;html=1;exitX=0.995;exitY=0.836;exitDx=0;exitDy=0;entryX=0.5;entryY=0;entryDx=0;entryDy=0;exitPerimeter=0;" parent="1" source="6w-v6orT0S4Obo7nglp9-7" target="6w-v6orT0S4Obo7nglp9-5" edge="1">
          <mxGeometry x="0.6427" y="23" relative="1" as="geometry">
            <mxPoint as="offset" />
          </mxGeometry>
        </mxCell>
        <mxCell id="6w-v6orT0S4Obo7nglp9-20" style="edgeStyle=none;shape=connector;rounded=0;orthogonalLoop=1;jettySize=auto;html=1;entryX=0.75;entryY=0;entryDx=0;entryDy=0;labelBackgroundColor=default;strokeColor=default;fontFamily=Helvetica;fontSize=11;fontColor=default;endArrow=classic;exitX=0.75;exitY=1;exitDx=0;exitDy=0;" parent="1" source="6w-v6orT0S4Obo7nglp9-7" target="6w-v6orT0S4Obo7nglp9-2" edge="1">
          <mxGeometry relative="1" as="geometry" />
        </mxCell>
        <mxCell id="6w-v6orT0S4Obo7nglp9-21" value="3. set read_counter = 0" style="edgeLabel;html=1;align=center;verticalAlign=middle;resizable=0;points=[];fontSize=11;fontFamily=Helvetica;fontColor=default;" parent="6w-v6orT0S4Obo7nglp9-20" vertex="1" connectable="0">
          <mxGeometry x="0.6449" y="1" relative="1" as="geometry">
            <mxPoint x="10" y="-11" as="offset" />
          </mxGeometry>
        </mxCell>
        <mxCell id="6w-v6orT0S4Obo7nglp9-7" value="Sequencer" style="whiteSpace=wrap;html=1;aspect=fixed;fillColor=#fff2cc;strokeColor=#d6b656;" parent="1" vertex="1">
          <mxGeometry x="290" y="90" width="90" height="90" as="geometry" />
        </mxCell>
        <mxCell id="6w-v6orT0S4Obo7nglp9-27" style="edgeStyle=none;shape=connector;rounded=0;orthogonalLoop=1;jettySize=auto;html=1;exitX=0.75;exitY=0;exitDx=0;exitDy=0;labelBackgroundColor=default;strokeColor=default;fontFamily=Helvetica;fontSize=11;fontColor=default;endArrow=classic;" parent="1" source="6w-v6orT0S4Obo7nglp9-8" target="6w-v6orT0S4Obo7nglp9-2" edge="1">
          <mxGeometry relative="1" as="geometry" />
        </mxCell>
        <mxCell id="6w-v6orT0S4Obo7nglp9-29" value="3. read_counter += 1" style="edgeLabel;html=1;align=center;verticalAlign=middle;resizable=0;points=[];fontSize=11;fontFamily=Helvetica;fontColor=default;" parent="6w-v6orT0S4Obo7nglp9-27" vertex="1" connectable="0">
          <mxGeometry x="0.5969" y="-2" relative="1" as="geometry">
            <mxPoint x="13" as="offset" />
          </mxGeometry>
        </mxCell>
        <mxCell id="6w-v6orT0S4Obo7nglp9-8" value="Client&lt;br&gt;uint16_t id = 0" style="whiteSpace=wrap;html=1;aspect=fixed;" parent="1" vertex="1">
          <mxGeometry x="250" y="525" width="90" height="90" as="geometry" />
        </mxCell>
        <mxCell id="6w-v6orT0S4Obo7nglp9-9" value="Client&lt;br&gt;uint16_t id = 2" style="whiteSpace=wrap;html=1;aspect=fixed;" parent="1" vertex="1">
          <mxGeometry x="430" y="525" width="90" height="90" as="geometry" />
        </mxCell>
        <mxCell id="6w-v6orT0S4Obo7nglp9-10" value="Client&lt;br&gt;uint16_t id = N" style="whiteSpace=wrap;html=1;aspect=fixed;" parent="1" vertex="1">
          <mxGeometry x="560" y="525" width="90" height="90" as="geometry" />
        </mxCell>
        <mxCell id="6w-v6orT0S4Obo7nglp9-19" value="1. wait until read_counter == N" style="rounded=0;orthogonalLoop=1;jettySize=auto;html=1;exitX=0.25;exitY=0;exitDx=0;exitDy=0;entryX=0.121;entryY=1.001;entryDx=0;entryDy=0;entryPerimeter=0;" parent="1" source="6w-v6orT0S4Obo7nglp9-2" target="6w-v6orT0S4Obo7nglp9-7" edge="1">
          <mxGeometry x="0.1193" y="55" relative="1" as="geometry">
            <mxPoint as="offset" />
          </mxGeometry>
        </mxCell>
        <mxCell id="6w-v6orT0S4Obo7nglp9-24" value="" style="group" parent="1" vertex="1" connectable="0">
          <mxGeometry x="240" y="290" width="490" height="110" as="geometry" />
        </mxCell>
        <mxCell id="6w-v6orT0S4Obo7nglp9-2" value="atomic&amp;lt;uint16_t&amp;gt;&lt;br style=&quot;border-color: var(--border-color);&quot;&gt;read_counter" style="whiteSpace=wrap;html=1;aspect=fixed;fillColor=#f8cecc;strokeColor=#b85450;" parent="6w-v6orT0S4Obo7nglp9-24" vertex="1">
          <mxGeometry width="110" height="110" as="geometry" />
        </mxCell>
        <mxCell id="6w-v6orT0S4Obo7nglp9-5" value="array&amp;lt;uint8_t, 1024&amp;gt; down_stream_packet_payload" style="rounded=0;whiteSpace=wrap;html=1;fillColor=#d5e8d4;strokeColor=#82b366;" parent="6w-v6orT0S4Obo7nglp9-24" vertex="1">
          <mxGeometry x="110" width="380" height="110" as="geometry" />
        </mxCell>
        <mxCell id="6w-v6orT0S4Obo7nglp9-25" value="1. wait until read_counter == 0" style="edgeStyle=none;shape=connector;rounded=0;orthogonalLoop=1;jettySize=auto;html=1;exitX=0.215;exitY=1.026;exitDx=0;exitDy=0;entryX=0.317;entryY=-0.037;entryDx=0;entryDy=0;entryPerimeter=0;labelBackgroundColor=default;strokeColor=default;fontFamily=Helvetica;fontSize=11;fontColor=default;endArrow=classic;exitPerimeter=0;" parent="1" source="6w-v6orT0S4Obo7nglp9-2" target="6w-v6orT0S4Obo7nglp9-8" edge="1">
          <mxGeometry x="0.3536" y="-54" relative="1" as="geometry">
            <mxPoint as="offset" />
          </mxGeometry>
        </mxCell>
        <mxCell id="6w-v6orT0S4Obo7nglp9-26" value="2. read payload" style="edgeStyle=none;shape=connector;rounded=0;orthogonalLoop=1;jettySize=auto;html=1;exitX=0.25;exitY=1;exitDx=0;exitDy=0;entryX=1;entryY=0.25;entryDx=0;entryDy=0;labelBackgroundColor=default;strokeColor=default;fontFamily=Helvetica;fontSize=11;fontColor=default;endArrow=classic;" parent="1" source="6w-v6orT0S4Obo7nglp9-5" target="6w-v6orT0S4Obo7nglp9-8" edge="1">
          <mxGeometry relative="1" as="geometry" />
        </mxCell>
        <mxCell id="6w-v6orT0S4Obo7nglp9-28" style="edgeStyle=none;shape=connector;rounded=0;orthogonalLoop=1;jettySize=auto;html=1;exitX=0.25;exitY=0;exitDx=0;exitDy=0;labelBackgroundColor=default;strokeColor=default;fontFamily=Helvetica;fontSize=11;fontColor=default;endArrow=classic;" parent="1" source="6w-v6orT0S4Obo7nglp9-8" target="6w-v6orT0S4Obo7nglp9-8" edge="1">
          <mxGeometry relative="1" as="geometry" />
        </mxCell>
        <mxCell id="6w-v6orT0S4Obo7nglp9-30" value="&lt;b&gt;&lt;font style=&quot;font-size: 14px;&quot;&gt;Downstream Message Passing and Synchronization&lt;/font&gt;&lt;/b&gt;" style="text;html=1;align=center;verticalAlign=middle;resizable=0;points=[];autosize=1;strokeColor=none;fillColor=none;fontSize=11;fontFamily=Helvetica;fontColor=default;" parent="1" vertex="1">
          <mxGeometry x="280" y="30" width="370" height="30" as="geometry" />
        </mxCell>
        <mxCell id="kxtdKQapicjeYENIzTpj-1" value="Sequencer update the payload and notifies the Clients that they can read it." style="text;html=1;align=center;verticalAlign=middle;resizable=0;points=[];autosize=1;strokeColor=none;fillColor=none;" vertex="1" parent="1">
          <mxGeometry x="395" y="120" width="420" height="30" as="geometry" />
        </mxCell>
      </root>
    </mxGraphModel>
  </diagram>
</mxfile>
